<svg xmlns="http://www.w3.org/2000/svg" width="512" height="512" viewBox="0 0 192 192">
  <rect width="192" height="192" rx="36" fill="#1a1a2e"/>
  <rect x="24" y="40" width="144" height="112" rx="8" fill="#0f3460"/>
  <rect x="24" y="40" width="144" height="22" rx="8" fill="#e94560"/>
  <rect x="24" y="54" width="144" height="8" fill="#e94560"/>
  <circle cx="152" cy="58" r="3" fill="#1a1a2e"/>
  <circle cx="152" cy="74" r="3" fill="#1a1a2e"/>
  <circle cx="152" cy="90" r="3" fill="#1a1a2e"/>
  <circle cx="152" cy="106" r="3" fill="#1a1a2e"/>
  <circle cx="152" cy="122" r="3" fill="#1a1a2e"/>
  <circle cx="152" cy="138" r="3" fill="#1a1a2e"/>
  <rect x="48" y="84" width="3" height="36" rx="1" fill="#eaeaea" opacity="0.35"/>
  <rect x="56" y="84" width="6" height="36" rx="1" fill="#eaeaea" opacity="0.35"/>
  <rect x="67" y="84" width="2" height="36" rx="1" fill="#eaeaea" opacity="0.35"/>
  <rect x="74" y="84" width="5" height="36" rx="1" fill="#eaeaea" opacity="0.35"/>
  <rect x="84" y="84" width="3" height="36" rx="1" fill="#eaeaea" opacity="0.35"/>
  <rect x="92" y="84" width="7" height="36" rx="1" fill="#eaeaea" opacity="0.35"/>
  <rect x="104" y="84" width="2" height="36" rx="1" fill="#eaeaea" opacity="0.35"/>
  <rect x="111" y="84" width="4" height="36" rx="1" fill="#eaeaea" opacity="0.35"/>
  <rect x="120" y="84" width="3" height="36" rx="1" fill="#eaeaea" opacity="0.35"/>
</svg>
